<svg version="1.2" xmlns="http://www.w3.org/2000/svg" viewBox="0 0 2560 2560" width="2560" height="2560">
	<title>mountains</title>
	<style>
		.s0 { fill: #142550 } 
		.s1 { fill: #d09c65 } 
		.s2 { fill: #0f193d } 
	</style>
	<path id="front-right" class="s0" d="m3244 1191.6c0 0-215 1490.4-356 1703.7-141 213.2-539-523.6-923-508.3-384 15.3-1269-93.6-1827-256-558-162.4-234-335.6 66-450 300-114.4 435-465.1 470-498 35-32.9 81-86.1 123-102 42-15.9 61-6.1 78-10 17-3.9 67-34.1 84-60 9.7-14.8 13.4-33.5 35.5-41.6 77.5-28.5 74.5-54.5 109.5-43.5-6 45 23 43 75 45.1 96-41.9 84.5-68.7 101-69.2 43.5 1 32.5-10.4 107.5-31.4 33-9.3 47.1-38.2 57.3-67.1 20.2-56.8 13.2-65.3 51.2-69.3 55.4-11 93.8-82.8 130.3-144.7 12.5-38.9 17.9-58.5 32.2-70.7 38.5-6.3 39.1-17.5 90.5-27.6 66-32.7 61.5-112.6 93-96.1 27 12 45 14.7 96 12 57-22.5 85.5-114.3 127.5-108 42 6.2-10.5 5.8 112.5 42.1 123 36.3 58.5-214.6 126-262.6 91.5-12 84 31.3 198 4.6 114-26.7 186-207 186-207z"/>
	<path id="river" class="s1" d="m2974.5 2779.9l-3001.5-170.9 54-318 580-949c0 0 2-20.1 196-40 194-19.9 224.5-1.5 306 21 81.5 22.5 55 57 40 87-15 30-55 46.5-159 75-232.2 63.3-175.3 98.2-164.6 101.4 12 3.2 25 4.9 32.6 5.6 19.2 1.7 86 36 86 36l81 42 126 31 219 32 221 36 61 16c0 0 46 19.3 48 24 3.6 8.6 8 33 8 33 0 0 4 21.3 10 43 8 28.9 103 74 103 74 0 0 79 60.9 173 108 136 35.1 190 169 190 169 51 194.3 790.5 543.9 790.5 543.9z"/>
	<path id="front-left" class="s2" d="m-294 2651c0 0 168-2385.3 246-2367 78 18.3 186 179.9 218 231 32 51.1 37 128.9 79 147 42 18.1 49.5-42.1 72-29 22.5 13.1 69 43.9 93 107 24 63.1 30 77.9 69 121 21 43.1 69 160.9 114 185 45 24.1 172.5 79.4 173 178-86.5 124.1 302.5 97.9 235 155-67.5 57.1-125 81.5-227 105-138 19.5-239.5 29-293 113-4.6 7.2-29 45.7 175 238 339 216.3 240 323.7 129 387-111 63.3-369 174-369 174l-522 203.8z"/>
</svg>