<svg version="1.2" xmlns="http://www.w3.org/2000/svg" viewBox="0 0 2560 2560" width="2560" height="2560">
	<title>mountains</title>
	<style>
		.s0 { fill: #7eaea2 } 
		.s1 { fill: #427092 } 
		.s2 { fill: #548f97 } 
	</style>
	<path id="upper-mid" class="s0" d="m2070 459l90 72-6 366-1644-96 263-149 96-47 105-49 46-38 29-52 31-44 39-33 23-7 18 10 46 24 74 23 64-12h89l46-21 50-35 72-21 78 27 73 41 186 17z"/>
	<path id="mid-right" class="s1" d="m552 1544l204-116 60-72 92-48 124-36 48-12 100-84 95-95 73-136 113-135 137-202 68-86 200-134 64-106 64-72 114-66 88-84 144-48 116 100 121 67.9 435 1683.1-2700 36 78-228zm-12-5"/>
	<path id="mid-left" class="s2" d="m1484 886l34 122 92 126 88 100 60 108 34 150 76 94 112 86 486 105.8 398 216v1033.8l-3648-132 166-1398.6 48-372 393-787 135-141 96-45 81 8 80 52 78 39 36 47 34 40c0 0 7.2 24.2 21 57 22.8 18 54 15 54 15l48 12 80 18 42 26 36 40 15 21 46 21 54-4 86-26 76 3 71 47 82 3 68 34 66 62 46-4 120 48 78 90z"/>
</svg>